<?xml version="1.0" encoding="UTF-8"?>
<svg id="Layer_1" data-name="Layer 1" xmlns="http://www.w3.org/2000/svg" viewBox="0 0 946.99 496.63">
  <defs>
    <style>
      .cls-1 {
        fill: #fffbf8;
      }
    </style>
  </defs>
  <path class="cls-1" d="M710.57,342.74c-9.69-7.88-25.02.85-32.78,9.97.33-4.54,2.99-7.43,2.01-11.9-3.15-1.68-11.32-3.97-13.79-.44l-7.66,26.56c-1.21,4.19-16.12,19.6-20.38,15.53-5.42-5.18,10.37-27.81,5.07-36.76-2.2-3.72-7.95-4-11.9-2.4-9.79,3.95-16.57,11.74-23.14,20.06-.5-5.31,4.87-13.33.25-18.18-10.07-10.57-29.56,12.13-35.43,20.38.49-7.05,5.28-12.45,4.41-19.47-.51-4.11-10.98-5.24-13.11-1.55-3.85,6.67-3.44,14.45-6.76,21.4-3.24,6.78-15.92,21.05-20.81,17.11-6.31-5.08,9.04-32.9,6.44-36.57-1.52-2.14-9.15-.3-12.26.26-5.55-4.58-12.44-4.51-18.71-2.98-14.16,3.45-21.28,14.11-28.82,25.28-7.77,11.51-21.23,19.27-33.45,25.11-7.94,3.8-16.49,4.98-24.71,3.9-11.59-1.52-19.4-10.64-20-22.22-1.58-30.53,24.88-65.46,47.71-83.31,9.33-7.3,32.18-20.52,41.12-10.87,2.25,2.43,3.2,6.42,2.44,10.24-4.97,25.05-25.51,31.24-24.91,34.97,1.04,6.39,33.72-4.39,37.84-35.42,1.38-10.36-5.18-18.51-15.47-20.13-11.76-1.85-23.85.11-35.33,5.18-30.3,13.39-55.59,37.1-70.37,66.74-5.17,10.37-7.95,21.34-7.65,32.27.5,17.91,12.06,31.61,29.62,34.39,27.21,4.31,52.17-10.59,71.78-29.54,1.19,5.28,3.33,9.08,6.6,10.97,11.12,6.47,24.25-4.09,32.16-13.27.42,5.08.91,9.43,4.04,11.91,8.45,6.68,20.83-2.32,27.87-8.48.67,3.08-1.78,6.34.68,8.43,2.73,2.32,9.73,3.19,12.59.75,5.56-14.26,13.45-27.3,25.88-36.32.75-.55,1.93-.82,2.39-.54,4.11,2.55-8.88,28.86-5.35,33.95,1.57,2.26,7.92,3.51,10.82,2.24,1.16-.51,1.82-2.2,2.53-4.1,5-13.39,12.93-25.5,25.68-33.33,4.18,7.03-12.34,28.56-1.95,36.94,8.43,6.79,20.4-2.12,28.09-8.28l-13.54,46.98c3.45,2.75,7.57,2.66,11.56.93,7.65-3.33,12.22-31.14,16.05-41.22,12.59,5.06,25.95,1.65,35.96-7.29,11.48-10.26,18.3-28.44,6.7-37.88ZM526.9,352.54c-1.09,12.91-17.23,33.8-25.37,31.28-6.27-1.94-3.11-22.76,12.42-34.22,3.38-2.49,13.43-2.75,12.95,2.94ZM684.35,383.29c-4.18,2.5-11.81,2.32-12.65-2.71-2.5-14.92,18.81-38.08,26.69-32.65,6.07,4.18,1.26,26.19-14.04,35.36Z"/>
  <path class="cls-1" d="M379.36,217.85c16.4,15.75,17.1,39.85,1.41,56.68-18.09,19.4-52.88,27.13-75.97,14.16-9.79-5.5-14.25-16.19-10.75-26.89,1.88-5.74,4.98-10.62,9.37-14.84,21.91-21.06,46.55-17.05,46.01-22.03-.68-6.34-60.12,0-77.38,35.4-6.77,13.88-2.72,29.22,10.31,37.62,32.84,21.17,109.09,1.82,126.7-39.82,7.43-17.56,3.95-36.33-9.11-49.89-15.7-16.3-33.08-24.31-46.2-38.72-14.68-16.12-12.55-34.13.98-50.09,27.68-32.66,80.79-45.78,83.18-20.88,1.99,20.79-15.22,40.47-33.79,48.42-1.29.55-2.11,1.92-1.77,2.88,3.05,8.74,52.89-15.74,49.4-53.31-1.92-20.6-27.23-22.58-43.22-20.01-26.37,4.24-50.8,16.21-70.49,34.11-18.24,16.59-30.8,42.81-12.64,64.47,14.99,17.87,35.66,25.16,53.95,42.73Z"/>
  <path class="cls-1" d="M624.52,225.35c-.54,5.98.15,11.65,1.25,17.08,2.1,10.32,11.47,15.02,21.47,12.1,8.64-2.52,15.09-8.6,21.94-15.66,3.34,9.45,10.52,15.86,20.56,16.12,18.42.48,31.22-13.63,35.48-30.54l12.33-.47c-.14,9.69-1.5,25.54,7.82,29.18,11.59,4.52,21.97-13.11,27.08-22.16.72,7.47.9,14.45,6.16,19.43,4.55,4.31,12.22,3.44,17.13-1.17,13.79-12.93,23.48-30.8,26.82-49.52.74-4.14-1.09-7.94-3.91-9.74-1.96-1.26-7.09-1.92-9.01.81,1.24,17.72-3.29,35.33-14.13,49.53-1.08,1.42-3.15,2.23-4.31,2.07-7.85-1.09,2.76-38,.54-43.55-1.74-4.35-9.22-4.54-13.22-3.36-1.99,10.97-12.57,43.02-22.33,47.41-9.18,4.12,1.81-39.89,2.53-43.1,1.1-4.89-.55-8.49-5.71-10-2.3-.67-7.77-2.38-9.02,1.04-3.66,10-1.81,23.78-9.6,26.32-14.91,4.85-3.18-13.48-17.68-24.69-5.68-4.39-13.32-3.92-19.97-1.58-16.37,5.74-24.89,20.53-28.09,37.04-1.2,6.2-15.93,21.43-24.09,15.28-5.74-4.33-3.25-23.48-1.72-30.44,17.3-18.15,30.65-38.48,42.3-60.53,5.13-9.71,18.9-37.66,10.24-45.97-7.94-7.61-21.52,1.98-28.24,8.86-8.17,8.36-14.05,17.85-19.45,28.5-12.92,25.51-20.57,53.13-23.15,81.71ZM702.73,199.89c3.16-2.49,5.58-3.19,9.98-1.55-5.92,8.41,1.22,14.64,2.52,21.73,1.45,7.9-9.31,31.2-22.73,27.98-10.05-2.41-8.81-33.15,10.24-48.15ZM686.18,113.22c1.14-.32,1.92-.8,2.64-.64,1.26.28,1.41,1.49,1.76,3.06-3.16,25.29-28.11,65.36-45.73,86.06,4.47-24.66,20.31-72.77,41.33-88.49Z"/>
  <path class="cls-1" d="M900.64,390.9l-29.71,3.6c1.22-7.4,12.49-46.94,9.07-49.11-2.2-1.39-4.91.91-9.72-1.67-6.4-3.42-13.51-3.92-20.38-1.77-14.6,4.56-23.85,16.41-28.38,30.51-1.53,4.76-8.62,8.97-12.69,10.19-3.36,1-3.62-3.6-3.4-5.32,1.4-11.25,11.1-24.93,6.34-32.26-2.82-4.34-8.7-4.26-13.29-2.37-9.82,4.03-16.75,11.86-23.77,19.93.21-6.89,5.32-11.74,3.93-18.19-.8-3.72-11.06-5.96-13.18-2.54-4.49,7.26-3.75,16.2-7.55,23.69-3.75,7.39-16.76,18.83-21.32,15.12-5.11-4.17,4.72-26.39,7.31-32.74.59-1.46.95-3.56-.45-4.76-2.43-2.08-10.23-3.75-12.2-.35-5.67,9.82-16.43,35.39-7.05,44.2,8.02,7.53,21.96-.77,28.93-6.78,1.13,2.37-.31,4.49,1.14,6.67,1.89,2.86,10.52,5.48,12.7,1.9,6.21-13.84,13.3-27.39,26.4-35.84,11.73-7.56-10.12,26.46.38,35.54,7.94,6.86,20.36-1.13,27.98-7.63,3.58,7.82,11.84,10.78,19.82,8.27,7.74-2.44,12.86-7.49,18.82-13.29-1.37,7.6-2.58,14.24-5.3,21.02-13.87,2.69-27.26,4.63-40.19,9.82-12.21,4.9-32.4,16.68-26.83,31.41,1.49,3.95,5.31,7.64,10.29,9.34,12.88,4.38,27.01,1.56,38.88-5.72,13.84-8.49,23.51-21.83,29.62-36.78,1.23-3.01,2.57-4.16,5.88-4.64,8.85-1.28,17.64-2.24,26.21-4.59,1.47-.4,2.02-1.56,2.55-2.14.48-.51-.01-2.81-.85-2.71ZM808.64,443.92c-4.68-.84-8.29-2.35-9.86-5.51-1.93-3.89-1.32-8.04,1.01-11.99,8.85-13.75,36.74-20.45,52.69-22.26-5.65,18.72-22.6,40.83-43.85,39.76ZM839.71,380.6c-8.42-5.56,8.69-37.34,21.94-34.14,13.72,3.31-11.47,41.06-21.94,34.14Z"/>
  <path class="cls-1" d="M437.73,242.37c-2.59-4.54-1.21-10.8.09-15.78l7.64-29.31c.46-1.75.59-4.18-1.29-5.42-3.17-2.09-11.87-3.26-14.25.3-4.49,15.42-10.98,37.8-8.53,52.85,1.17,7.2,7.57,10.97,14.44,9.54,10.89-2.27,19.13-13.79,24.53-22.11.7,6.56-1.2,13.3,4.48,17.5,9.88,7.3,23.96-3.28,30.66-11.69.93,3.72-1.8,6.58.1,9.67,2.3,3.75,9.28,6.57,12.98,3.59,3.32-2.67,2.96-7.64,4.73-11.22,4.19-8.5,22.01-37.68,32.63-37.09-.23,13.6-8.81,26.76-8.21,40.23.33,7.56,6.25,12.79,13.73,12.32,13.45-.85,22.73-13.35,17.7-14.06-3.83-.54-6.77,7.24-12.25,6.31-13.57-2.31,23.61-59.59-1.31-58.84-15.21.46-29.9,20.32-38.79,31.5l6.33-24.53c.82-3.19-1.14-5.88-4.53-6.55-2.74-.54-10.1-1.88-11.01,1.67l-7.59,29.52c-1.22,4.74-17.22,25.85-22.3,20.84-5.29-5.22,4.02-34.12,6.25-42.68.97-3.72-.5-6.38-4.39-7.37-3.13-.79-8.23-1.71-11.07.75-2.74,18.09-9.59,35.08-22.39,48.4-1.97,2.05-6.6,4.74-8.36,1.65Z"/>
  <path class="cls-1" d="M552.87,295.53c-6.76,5.97-15.69,5.01-21.57-1.72-1.04-1.19-3.46-2.05-4.4-.82-2.57,3.32,2.57,12.38,14.07,13.63,34.09,3.69,50.47-48.52,55.94-73.77l7.61-35.14c1.74-8.04,10.52-3.31,19.69-7.69,1.29-.62,2.13-1.84,2-2.89-.14-1.08-1.38-2.08-2.77-2.12l-15.18-.52c4.32-17.82,13.15-45.55,26.32-57,8.46-7.35,13.76-.52,15.68-3.69.39-.64.59-1.94.02-3-4.18-7.69-16.93-5.38-24.3.17-18.71,14.11-29.43,43.63-36.16,65.43-3.85,2.28-16.85,1.62-15.53,6.39.27.97,1.35,1.87,2.72,2.13l9.88,1.84c-3.7,19.52-7.96,38.4-13.04,57.6-3.61,13.65-10.48,31.92-20.97,41.18Z"/>
  <path class="cls-1" d="M943.62,188.43c-6.06-4-13.33-1.55-19.07,2.36-7.24,4.94-11.38,12.08-16.93,18.93-.37-6.04,6.89-15.02,2.71-19.56-2.7-2.93-12.81-3.37-14.67,1.32-4.04,10.17-6.16,20.41-8.71,31.15-6.43,10.83-33.69,31.45-44.18,21.13-4.34-4.26-3.85-13.4-2.06-15.52,2.39-2.82,16.45-.77,30.52-12.02,4.64-3.71,8.26-8.67,8.8-14.85.59-6.72-4.96-11.69-11.89-12.31-22.72-2.02-45.08,20.1-46.79,42.3-.92,12.04,7.24,21.84,19.24,22.73,16.3,1.21,29.33-7.13,41.73-16.96l-.09,11.82c-.03,3.6,5.34,4.71,8.68,4.39,12.49-1.2,3.3-13.67,20.46-38.81,3.4-4.98,14.82-20.7,21.27-16.82,1.63.98.3,6.27,2.45,7.47,4.46,2.51,9.88-1.32,11.36-6.2,1.1-3.62.75-8.21-2.81-10.56ZM865.4,196.23c2.19,1.02,2.05,3.67,1.86,6.23-3.32,10.41-12.43,17.81-24.81,18.72.49-7.7,15.52-28.43,22.96-24.95Z"/>
  <path class="cls-1" d="M901.56,317.94c.27-1.02-.61-2.22-1.9-2.7-46.51-17.13-115.16-22.68-165.15-22.91-56.87-.26-112.59,6.58-167.09,21.7-2.02.56-2.63,2.29-2.27,3.69.33,1.29,1.89,1.22,3.63,2.04,103.87-19.98,226.86-29.77,329.62-.37,1.37.39,2.95-.7,3.16-1.46Z"/>
  <path class="cls-1" d="M774.87,152.71c-.58,1.46,1.81,2.6,2.69,2.55.98-.05,2.21-.54,2.86-1.9,9.41-19.62,29.13-32.02,51.38-30.33,25.62,1.95,44.89,21.58,47.45,46.63.18,1.73,1.92,2.16,3.06,2.39.86.18,3.01-.3,3.24-1.58-1.69-29.88-25.86-52.93-55.85-53.8-24.02-.7-45.9,13.65-54.83,36.03Z"/>
  <path class="cls-1" d="M255.82,466.19c-2,.04-3.44-1.34-4.54-2.14-.93-.67-1.65-4.45-.35-4.46l81.48-.56,53.22,1.05c2.68.05,5.61-.26,7.45-2.39-4.71-5.47-21.89-3.84-25.75-9.69,7.09-3.79,14.83-3.43,22.44-4.05,10.97-.89,21.67-.66,32.34-2.98,2.74-.59,4.9-2.08,4.86-4.73-.13-7.84-23.47-10.19-29.36-9.07-1.68,5.39,17.11,1.76,23.59,8.19-2.99,2.5-6.79,2.88-10.53,3.14l-27.9,1.99c-5,.36-20.36,1.89-21.19,6.87-.89,5.31,9.8,6.14,10.49,8.41-39.88-2.38-78.7-2.65-118.2-1.56-5.2.14-7.9-1.45-11-4.89-9.46-10.52-23.5-14.7-37.02-10.35-11.69,3.75-21.86,11.02-28.82,21-1.71,2.45-1.99,5.88-.48,8.14,1.05,1.57,3.81,3.06,6.46,3.12,13.25.34,25.85.5,39.01,2.35,1.55.22,5.75-.85,4.86-2.7-3.18-6.65-23.67-2.56-29.82-5.54l14.14-8.25c-6.33-3.21-17.84,4.52-25.06,5.01,5.48-7.56,12.9-12.15,21.35-15.23,14.2-5.17,30.67,1.81,35.1,16.81,3.48,11.78-9.76,11.41-7.62,17.67.41,1.21,2.38,2.86,4.34,3.03,15.44,1.34,30.85,1.73,46.21,5.03,4.04.87,6.19-2.33,8.74-3.05,7.85-.65,15.7,3,23.72-.92-5.3-4.88-17.77-2.33-22.85-5.17-7.01-12.4-26.5-14.37-39.28-14.09ZM279.34,480.63c-8.75-1.41-17.03-2.56-25.81-3.42-1.36-.13-2.26-1.05-2.38-1.83-.88-5.93,30.14-1.84,34.24,4.39-1.86,1.59-3.96,1.2-6.04.87Z"/>
  <path class="cls-1" d="M496.83,480.45c-9.62-7.12-19.05-12.49-31.76-10.41-5.19.85-23.41,4.03-22.23,11.52.82,5.25,18.45,5.53,21.62,2.73l-12.67-3.89c7.72-5.7,29.37-7.85,36.66,1.39-5.04,2.61-18.13,4.42-16.26,10.33.35,1.11,2.05,2.66,3.95,2.74,13.14.6,26.82,3.04,39.79.9,3.64-.6-.14-6.33-1.67-8.1-3.84-4.43-12.96-3.92-17.42-7.22ZM482.07,489.62c8.12-3.16,17.14-4.55,26.01,1.1-8.22,1.02-16.64.53-26.01-1.1Z"/>
  <path class="cls-1" d="M523.18,433.85c-27.98-3.96-69.67-2.74-95.83,7.9-2.66,1.08-4.7,3.41-4.41,5.98.69,6.02,15.04,6.41,25.97,11.47,1.52.7,3.46-.67,3.61-1.74.88-6.23-19.09-4.93-23.04-10.24,11.73-8.82,49.63-11.07,63.54-10.75,10.31.23,19.86.44,30.06,1.62,1.59.18,5.06.31,5.41-1.46.09-1.61-3.58-2.53-5.32-2.78Z"/>
  <path class="cls-1" d="M406.59,468.96c-24.6,3.05-48.61,4.99-73.44,5.4-3.03.05-5.57-.27-8.4,1.33,4.24,3.15,8.61,2.55,13.46,2.44,26.36-.59,74.51-2.66,98.56-10.7,2.14-.71,3.99-3.23,2.4-5.27-10.61,2.81-21.38,5.41-32.58,6.8Z"/>
  <path class="cls-1" d="M350.22,428.82c-1.99.31-3.29,2.13-5.22,2.3-.28.02-.68.06-1.16.11-6.08-7.46-23.49-34.02-28.03-41.82-.64-1.11-1.81-2.37-3.16-2.57-11-1.66-21.7-2.18-32.76-3.28-2.09-.21-4.55-.16-5.4,2.13-2.18,5.93-4.69,11.43-8.14,16.86l-18.51,29.17c-2.34,1.24-6.08-1.06-7.71-2.32-7.74.82-4.16-1.63-6.35-1.57-3.37.09-4.22,1.85-5.22.72-.32-.36-.32-2.2-.89-2.16-3.61.27-6.56,3.23-9.16,5.62,1.98,1.47,3.75-.62,5.46-.77,1.71,2.44,4.79.81,6.53,1.43,2.64.95,13.96,2.77,15.55-.17.43,1.64.14,2.63.93,3.37.52.49,1.73.9,2.84.97l29.25,1.87c8.37.54,16.46,2.41,24.84,1.62l38.42-3.6c1.23-.12,2.52-.98,2.9-1.73.07-.15.12-.29.15-.45,15.12-.23,29.88.32,44.88,1.75,3.71.35,7.29,1.07,11.06.06-11.33-3.74-22.63-3.5-34.21-5.22-1.73-.26-4.35-2.47-6.49-.61-5.04-5.53-4.89,2.99-10.42-1.7ZM265.24,433.18c-4.17.61-7.9.34-11.59-.93l20.81-33.96c.52,9.78-5.81,24.95-9.22,34.89ZM288.51,434.51c-2.65-2.52-2.47-7.32-3.35-10.68-2.4-9.14-3.41-18.2-6.86-26.94-.87-2.21-2.18-4.36.09-6.53,2.61,4.55,4.25,9.23,6.32,14.07l13.18,30.81c-2.72.44-7.17,1.37-9.37-.72ZM336,431.46c-.3.31-1.11.82-1.85.9l-26.54,2.68c-2.45.25-4.2-.82-5.26-3.02-6.8-14.14-13.18-28.15-18.83-43.2,9.03.24,16.66,1.25,24.87,2.03,1.51.14,2.93,1.11,3.76,2.38l23.56,36.01c.6.91.59,1.93.3,2.24Z"/>
  <path class="cls-1" d="M726.49,107.3l46,26.07c1.21.68,2.9.15,3.17-.7.24-.77.1-2.2-1.17-2.91l-45.89-25.82c-1.22-.69-3.04-.19-3.26.78-.19.82.08,1.99,1.15,2.59Z"/>
  <path class="cls-1" d="M709.09,147.78c16.87.93,33.43,1.43,50.3,1.34,1.16,0,1.77-1.58,1.45-2.13-.31-.53-1.04-1.68-2.42-1.72l-14.63-.4-34.1-1.24c-1.42-.05-2.35.82-2.44,1.92-.07.83.4,2.15,1.84,2.23Z"/>
  <path class="cls-1" d="M787.03,117.36c.67.92,3.23.23,3.46-.52.19-.62.5-1.59-.24-2.59l-27.6-37.42c-.8-1.09-2.36-1.07-3.25-1.03-.66.03-1.68,1.52-.97,2.49l28.6,39.06Z"/>
  <path class="cls-1" d="M809.07,106.85c.29,1.35,2.02,1.57,2.76,1.38.65-.17,1.52-1.33,1.27-2.51l-9.35-42.78c-.28-1.29-1.5-1.9-2.34-1.85-1.1.06-1.85,1.16-1.55,2.55l9.23,43.21Z"/>
  <path class="cls-1" d="M861.07,114.75c.67.5,2.6.64,3.53-.71l20.26-29.55c.7-1.02.06-2.76-.75-2.86-.64-.07-1.97-.07-2.57.77l-20.37,28.61c-.91,1.28-1.25,2.89-.1,3.74Z"/>
  <path class="cls-1" d="M837.27,107.14c.64.11,2.31-.18,2.6-1.5l7.15-32.82c.25-1.16-.83-2.33-1.51-2.49-1.01-.23-2.04.39-2.33,1.66l-7.37,32.45c-.3,1.34.59,2.54,1.46,2.69Z"/>
  <path class="cls-1" d="M880.19,130.96c.47.48,1.99,1.08,3.18.38l26.93-16.01c1.07-.64,1.23-2.47.56-2.98-.52-.4-1.97-1.04-2.88-.5l-27.15,16.08c-1.23.73-1.3,2.36-.65,3.03Z"/>
  <path class="cls-1" d="M892.55,152.94c.34.41,1.05,1.1,2.08,1l28.19-2.66c1.6-.15,1.99-1.39,1.86-2.25-.11-.72-.83-1.67-2.12-1.58-9.88.69-19.47,1.49-29.26,2.84-1.18.16-1.18,2.12-.75,2.64Z"/>
  <path class="cls-1" d="M737.12,322.43c-.75,2.71-.8,6.61,2.11,8.06,4.69,2.34,9.98-.41,13.68-4.16,2.09-2.12,4.04-5.98,1.87-8.36-3.13-3.42-15.33-3.93-17.66,4.46Z"/>
  <path class="cls-1" d="M126.44,359.88c-2.3-28.43-1.34-56.42,1.65-84.76l13.46-19.22c4.47,3.34,8.63,16.88,13.99,16.34,1.73-.17,3.28-1.27,4.26-3.08l8.38-15.37c6.33,5.57,25.16,23.29,31.8,21,1.15-.4,2.07-1.91,2.55-3.66l5.35-19.39c6.23,1.91,19.27,11.12,23.57,7.62,3.27-2.65-.27-16.56-.57-22.27,6.25.1,33.23,9.39,30.14-2.61l-4.11-15.99c5.24-1.41,16.44,1.38,19.02-2.51,2.69-4.04-7.73-17.58-11.57-23.09,5.11-2.11,27.08-3.18,27.96-9.09.7-4.74-15.51-18.63-20.02-23.18l12.96-4.91c1.77-.67,3.03-2.3,3.16-3.81.5-5.71-16.07-12.74-21.85-17.41,9.27-6.15,17.94-11.37,25.04-19.12,1.24-1.35,1.26-3.23.84-4.83-1.02-3.9-23.64-10.83-30.02-13.16,1.48-2.9,18.54-20.89,10.17-23.03-10-2.56-20.06-1.18-31-.42,1.74-7.93,7.02-26.71,3.1-31.44-4.54-5.49-28.18,2.64-36.11,5-.13-6.54,3.2-23.43-.91-26.05-7.53-4.8-22.29,14.95-23.88,14.21-.65-.3-1.72-1.14-1.97-2.06C180.1,26.94,172.36.46,165.5,0c-7.05-.47-20.24,22.15-24.94,28.24l-11.76-20.33c-1.24-2.14-2.89-3.51-5.19-3.37-7.23.45-11.8,18.92-13.08,25.28-4.38-2.98-7.23-5.91-10.83-8.63-4.52-3.42-21.19-14.23-23.42-4.47-1.83,8.02-1.18,15.92-2.68,24.51-6.23-2.98-24.62-11.65-28.14-7.65-3.91,4.44,6.22,27.86,4.68,31.49-.82,1.92-20.57-.37-38.56,9.06-8.75,4.59,14.45,24.79,18.11,27.95,1.3,1.12,2.77,2.44,2.52,4.3-11.14,2.85-21.98,6.34-31.01,13.06-2.82,2.1.09,6.64,1.85,8.33,6.44,6.17,14.09,9.33,22.35,13.33-5.44,4.98-34.78,26.37-19.5,31.73,8.62,3.02,17.08,4.52,26.65,6.59-5.15,4.54-18.23,26.89-7.03,28.39,14.36,1.92,11.93-.49,25.04-.11-.83,5.77-4.96,31.12-.3,33.21,7.57,3.39,27.22-8.6,28.95-4.74,1.91,4.26-2.79,27.45,8.85,25.24,7.02-1.33,11.03-5.61,17.36-9.97,3.89,7.2,10.04,14.22,11.79,22.1-.53,24.13-1.86,47.49-1.01,72.4-5.16-4.01-9.48-9.29-12.17-14.64-.8-52.39-53.05-72.57-98.85-68.8-2.65.22-5.52,1.58-5.03,5.07,2.69,19.32,11.66,36.74,25.74,50.16,15.82,15.07,36.47,21.38,58.31,19.12,6.25-.65,14.43-.65,19.03,4.57,5.32,6.04,12.25,13.48,14.09,21.51,4.15,18.1,6.28,35.76,14.87,52.31.62,1.2,2.79,4.01,4.07,2.06,1.61-2.46.33-6.81-.56-9.85-4.64-15.8-7.88-31.02-9.22-47.56ZM69,300.57c-5.67-4-11.51-6.99-16.6-11.34-3.02-2.58-3.52-6.75-7.25-9.08-1.4,1.56-.57,3.42.05,5.16-5.42,1.11-11.18-4.81-17.11-4.78l10.1,8.96c-1,.75-1.84.97-2.3,1.12-.28.09-.67.49-.19.89,1.19.99,22.85,4.44,30.9,15.52-6.27,2.63-11.71,1.07-17.25,4.46,9.92,4.72,21.18-2.07,28.26,3.59,5.16,4.13,10,7.77,14.76,13.96-7.3.61-14.07,1.37-21.32,1.02-31.37-1.5-57.91-29.03-62.36-59.91,27.3-2.61,57.17,4.73,75.19,25.41,6.74,7.74,11.4,16.54,12.12,27.33-6.34-5.44-14.2-9.47-17.86-16.58l-8.75-17.01c-.45-.87-1.12-1.39-1.75-1.38-4.19.05,2.58,9.54,1.36,12.66ZM155.59,262.62c-5.4-5.29-7.42-10.93-9.42-17.39,3.74-9.73,3.04-19.28,4.48-29.99,2.45,27.19,19.88,27.03,4.94,47.38ZM196.36,266.2c-12.63-6.04-21.62-15.01-29.32-25.64-9.85-13.6-13.27-36.26-5.16-38.75,10.94-3.35,16.06,27.71,23.17,34.03,2.88-8.94-21.38-45.8-2.46-35.9,19.4,19.15,22.36,40.22,13.78,66.26ZM224.83,251.62c-6.35-1.51-11.7-5.08-16.51-9.44-.99-5.01-1.49-9.52-1.24-15.15,5.28,1.97,9.71,4.23,14.21,7.14,2.69,5.11,3.97,10.12,3.54,17.44ZM189.26,196.24c-1.36-2.49.99-4.73,2.37-5.63,6.83-4.47,26.71,16.99,34.67,21.03-3.13-8.64-26.12-24.34-25.89-28.57.42-7.87,25.99,3.06,37.89,18.09,7.46,9.43,13.2,19.77,14.79,32.24-29.35-2.53-49.93-11.64-63.83-37.17ZM267.47,210.66c-4.7,1.46-12.54,1.3-15.65-2.8l-12.35-16.35c4.52-1.04,7.46.25,11.42.31,6.93,4.39,13.1,9.64,16.58,18.84ZM282.33,181.2c-11.56,6.6-33.73,4.64-45.69,1.93-7.33-1.66-26.41-8.61-26.86-15.06-.81-11.46,30.11,3.61,39.61,1.35-10.41-5.4-21.31-7.76-32.48-10.79-1.85-.5-3.47-2.16-3.52-3.64-.05-1.24,1.41-3.81,3.43-3.97,25.18-2,50.49,9.37,65.51,30.19ZM277.86,150.64c-3.76,2.62-10.82,5.7-15.48,3.42-14.33-7.01-28.68-10.49-44.5-10.78l24.13-1.59c9.69-.64,14.96-8.63,35.86,8.95ZM282.98,113.05c-14.39,17.4-42.48,25.45-64.3,22.05-2.52-.39-4.23-2.36-4.56-4.07-.45-2.28.46-4.87,3.33-5.67l31.05-8.67c-9.15-4.26-35.12,7.17-38.14,1.06-3.72-7.54,20.49-14.4,27.7-14.87,15.54-1.01,30.86,2.79,44.92,10.18ZM265.28,80.61c-12.64,22.79-16.27,12.01-38.82,17.09,3.4-4.8,5.48-9.73,9.75-12.87,7.98-5.87,18.94-6.05,29.07-4.22ZM238.15,48.45c1.08,24.03-12.92,46.14-34.29,55.89-2.35,1.07-4.54-.96-5.21-2.24-.72-1.37-1.52-4.55-.45-6.39,3.64-6.25,7.92-11.88,12.45-17.49,2.3-2.85,5.07-4.86,6.23-9.32-3,.85-5.15,2.97-7.36,5.2l-17.31,17.4c-1.51,1.52-4.63.98-5.85.2-1.6-1.03-1.65-3.82-1.12-5.94,5.94-23.54,29.02-36.78,52.91-37.3ZM202.34,29.26c1.85,29.58-13.02,27.02-24.06,51.71,5.65-25.04.78-36.81,24.06-51.71ZM161.63,11.41c.7-.75,1.66-1.12,2.15-1.27,3.63-1.07,20.7,33.3,6.56,67.41-1.33,3.21-4.03,4.35-6.65,4.15-3.39-.25-5.44-2.87-5.27-6.94l1.29-30.49c-7.59,8.89-3.46,35.26-11.16,35.74-2.98.19-5.7-1.82-6.44-5.77-4.21-22.49,3.91-46.06,19.51-62.83ZM146,87.5c16.74-.13,32.08,4.73,44.2,15.92,15.47,14.27,20.83,34.99,14.69,55.02-4.92,16.06-16.51,28.1-32.69,33.22-19.47,6.15-40.14,2.85-56.15-10.25-14.36-11.75-24.42-30.82-21.72-50.87,3.45-25.65,26.44-42.84,51.67-43.04ZM123.9,14.13c17.89,25.68,10.6,29.26,10.23,46.46-.13,6.21,1.6,11.79.23,18-3.01-6.22-3.32-12.53-5.43-18.81-2.42-7.21-6.91-12.9-9.88-19.91-3.51-8.26-1.12-18.86,4.85-25.74ZM83.02,20.9c8.02,1.85,13.48,6.58,19.07,11.77,13.08,12.15,22.25,27.94,23.73,45.8.2,2.43-1.15,4.91-2.61,5.66-2.51,1.28-4.71-.31-6.1-2.56l-19.3-31.14c-.3,10.01,16.13,31.88,13.48,38.63-1.23,3.13-6.09,1.55-8.32-.55-18.34-17.31-25.18-42.59-19.96-67.61ZM75.59,53.04c2.02,7.86,4.75,14.37,8.33,22.71l-19.67-7.25c-7.89-2.91-10.81-19.26-11.79-27.72,9.22,1.41,17.4,5.49,23.13,12.25ZM30.37,93.48c-4.19-4.28-8.7-7.93-11.15-14.1,9.7-5.31,20.3-6.14,30.97-5.53,15.46.88,29.85,6.01,41.5,16.14,3.05,2.65,7.97,8.63,5.55,12.33-.99,1.52-3.07,1.67-4.96,1.18-6.6-1.72-28.09-15.44-40.37-14.15,7.13,4.72,39.57,17.13,38.31,24.71-.3,1.82-1.96,4.16-4.47,4.12-21.32-.32-40.54-9.54-55.38-24.7ZM9.27,123.27c9.49-6.84,28.25-13.8,39.05-7.83,8.77,4.85,17.51,7.32,27.08,9.78-15.5-1.62-34.89,8.12-38.66,8.64-9.98,1.36-20.18-3.5-27.46-10.58ZM10.42,166.55c13.05-21.12,48.19-39.44,71.65-32.96,2.19.88,3.73,2.56,3.72,4.49-.01,2.07-1.87,3.57-4.03,4.21-12.15,3.58-24.24,6.09-35.87,13.24,9.52.24,30.34-9.58,39.96-6.42,2.26.74,2.55,3.89,2.47,5.92-.08,1.99-1.76,4.28-4.23,5.73-21.84,12.89-48.93,15.62-73.67,5.77ZM29.26,200.6c1.57-9.52,7.66-18.74,17.09-20.79,9.46-2.05,18.3-2.96,27.94-6.45-4.8,5.46-9.25,8.85-13.05,14.56-1.94,2.92-3.83,7.59-7.34,9.69-7.42,4.45-16.55,4.52-24.64,2.99ZM88.12,253.73c-2.39-7.74-3.01-16.51.85-23.54,2.46-4.48,8.06-6.33,12.11-9.58l1.01,19.78c-1.97,6.37-6.71,10.66-13.97,13.34ZM55.56,233.52c-2.15-26.63,12.5-50.58,35.56-62,2.22-1.1,4.86-.85,6.08.46,4.43,4.75-1.72,10.43-5.73,14.89-6.1,6.78-12.37,13.02-16.43,21.56,7.95-1.77,35.68-42.17,34.87-16.03-5.62,23.54-32.03,37.62-54.36,41.13ZM117.6,198.19c1.09-1.56,2.75-2.47,4.06-2.45,1.85.02,3.04,2.31,2.97,4.4l-1.01,30.74c-.02.69.46,1.45.14,2-.31.52,1.28,1.71,1.53.88,3.84-13.13,3.39-34.13,9.39-34.11,1.77,0,5.06.91,5.92,3.55,5.86,18.05,2.38,37.7-8.24,53.4-2.59,3.83-4.24,7.33-8.81,10.79-15.93-19.84-20.85-47.73-5.93-69.22Z"/>
  <path class="cls-1" d="M156.12,372.11c33.17,10.93,64.05-9.8,81.51-37.05,5.07-7.92,9.1-16.16,13.05-24.8.7-1.53.58-6.39-1.57-6.75-14.89-2.53-29.74-4.27-45-3.67-33.22,1.29-63.1,24.73-56.75,59.39,1.89,10.3-12.79,22.85-7.54,49.72.79,4.02,2.9,8.06,6.28,9.9,1.21.66,2.72-.05,3.11-.76,1.4-2.55-10.15-18.9.49-42.87.99-2.22,3.78-3.97,6.41-3.1ZM198.29,307.76c14.38-1.52,28.33-.62,43.2,2.64-5.74,15.49-14.69,28.88-26.49,39.85-14.75,13.7-38.55,23.82-58.07,13.84,15.3-32.77,48.18-12,50.11-19.38,1.26-4.79-21.74-5.53-26.55-5.54,14.52-14.76,22.74-9.15,37.29-19.94-4.89-2.06-9.14.25-13.73,1.14-.7-1.81.86-3.2-.58-5.43-7.98,6.67-15.57,13.15-25.36,17.74l3.17-12.66c-5.85-.26-8.91,15.37-12.03,19.61-4.35,5.91-10.12,10.3-15,16.09-5.14-26.73,20.51-45.47,44.06-47.96Z"/>
  <path class="cls-1" d="M81.64,379.78c-.06,3.22,17.24,5.4,26.58,26.55.92,2.08,2.34,4.2,4.31,5.25,1.42.76,3.25.39,3.72-.59.36-.76,1.09-2.39.63-3.63-9.14-24.93-35.19-30.62-35.24-27.58Z"/>
  <path class="cls-1" d="M93.87,402.47c-13.22-9.7-35.18-12.98-50.91-6.94,3.34,1.91,6.7.86,10.26.89,13.27.1,25.15,4.86,37.22,10.87,2.37-.28,4.15-.21,4.35-1.56.13-.88.1-2.51-.92-3.26Z"/>
  <path class="cls-1" d="M151.43,421.54c.52.94,3.65,1.66,5.01.43,6.34-5.8,13.14-9.07,20.79-14-6.18-4.71-29.18,7.48-25.8,13.57Z"/>
  <path class="cls-1" d="M199.09,413.73c-7.78-5.4-33.16,3.59-27.31,8.36,3.67,2.99,17.47-6.73,26.98-6.51.78-1.38.62-1.65.33-1.85Z"/>
  <path class="cls-1" d="M122.34,126.13c.89,2.17-1.86,4.21-1.77,6.47.07,1.57,2.09,2.15,2.34,3.71-1.74,1.04-2.9,2.14-3.21,3.71-.34,1.8,2.51,2.54,2.5,3.99l-.05,7.45c-.01,1.9,3.27,1.75,4.86,2.94l-3.68,4.41c-1.34,1.61-.12,4.24,1.61,5.22,1.66.94,3.21-.33,4.85-1.52,1.27-.47,4.03.24,5.4.87,4.94,2.26-3.6,1.67-2.94,6.62.24,1.79,1.19,2.84,3.35,2.61,1.27-.14,1.92-1.64,3.17-2.53,2.56-1.82,11.94.26,12.03.43,1.86,3.51.39,7.51,2.95,8.04.89.19,1.88.36,2.94-.47,11.72-9.24,12.4.3,14.92-5.4.37-.82-.53-2.01-1.95-3.03-1.91-5.17,2.76,1.85,6.56-1.48,2.99-2.63-2.69-6.8.42-6.63,2.44.13,1.88,3.39,3.86,2.87,4.46-1.15,1.75-6.71,2.71-9.56,3.99-1.33,7.67-4.27,8.91-8.21.47-1.49-.66-3.1-1.5-4-.61-.66-1.76-.56-4.02-.32,1.03-15.99-.41-8.92-2.4-14.54-.69-1.96-1.24-4.38-2.35-6.64-1.05-2.13,1.09-6.27-3.29-7.38-1.03-.26-2.14.73-3.07,1.54-1.75-2.3-4.09-2.57-6.41-3.09,1.5-1.11,2.59-1.71,2.2-3.13-.23-.83-1.49-1.8-2.6-1.33-.56.24-1.08,1.14-1.34,2.13-.36,1.41-1.63,2.01-2.3,1.14-1.85-2.39,2.77-1.67-7.56-4.65-.2-3.26-2.18-4.82-4.84-4.76-4.99.12-1.77,6.4-5.11,6.28-.9-.03-.38-1.56-.84-2.45-1.39-2.68-4.4-.33-5.86.42-2.55,1.32-2.15,3.76-1.64,6.89-3.2-1.99-4.96.16-7.49,1.2-2.29.93-4.38,1.11-3.91,4.45.12.85-.77,1.68-1.24,1.98-.89.57-1.56-.42-1.92-1.42-.74-2.05-2.34-2.79-3.97-2.24-1.49.51-1.84,1.99-1.66,3.79.24,2.41,2.53,3.62,3.34,5.58Z"/>
  <path class="cls-1" d="M122.43,169.89c-2.32,1.06-2.25,3.77-1.5,5.4,1,2.17,3.57,2.27,5.13,1.43,2.18-1.17,2.08-3.75,1.48-5.32-.8-2.08-3.09-2.43-5.11-1.51Z"/>
  <path class="cls-1" d="M129.76,180.69c-1.38,2.99,1.33,4.75,3.34,5.27,2.03.53,5.74-.35,4.88-4-.78-3.3-7.07-3.76-8.23-1.27Z"/>
  <path class="cls-1" d="M162.55,179.1c-2.04,1.03-2.52,3.64-1.78,5.43.77,1.87,3.42,2.13,5.01,1.13,1.67-1.04,2.38-3.34,1.58-5.11-.7-1.56-3-2.36-4.82-1.44Z"/>
  <path class="cls-1" d="M189.47,157.1c-2.5,1.5-2.05,4.02-.7,5.37,1.65,1.65,3.66,1.87,4.81.97,1.96-1.54,2.29-3.59,1.51-4.74-1.36-2.01-3.71-2.74-5.62-1.6Z"/>
  <path class="cls-1" d="M182.3,166.96c-2.35.8-2.61,3.87-1.5,5.47,1.09,1.58,3.4,1.7,5.23.75,1.38-.71,2.02-2.79,1.3-4.61-.65-1.65-2.91-2.33-5.03-1.62Z"/>
  <path class="cls-1" d="M148.74,174.51c-.24-1.37-2.32-2.95-4.6-2.2-2.45.81-2.28,3.45-1.72,5.36.42,1.43,2.58,2.36,4.73,1.62,1.26-.44,1.89-3.1,1.59-4.77Z"/>
  <path class="cls-1" d="M99.57,136.59c1.72,1.03,3.83.78,4.99-.14,1.78-1.42,1.5-3.69.61-4.74-1.28-1.51-4.17-2.06-5.84-.37-1.69,1.71-1.13,4.43.24,5.25Z"/>
  <path class="cls-1" d="M139.65,101.99c.79-2.16-.28-4.2-1.4-4.97-.76-.51-2.17-1.33-3.39-.63-2.51,1.44-2.67,4.31-1.7,5.75,1.62,2.41,5.44,2.74,6.49-.15Z"/>
  <path class="cls-1" d="M167.37,103.95c2.3-.75,3.21-2.83,2.43-4.7-.72-1.72-2.38-2.75-4.86-1.98-2.91.9-2.67,3.54-1.72,4.77,1.28,1.66,2.97,2.29,4.15,1.91Z"/>
  <path class="cls-1" d="M178.42,108.49c1.8-1.27,1.98-3.32,1.08-4.92-.82-1.46-3.16-2.23-5.11-1.27-2.07,1.02-1.66,4.15-.36,5.79,1.05,1.32,3.08,1.32,4.38.4Z"/>
  <path class="cls-1" d="M124.5,110.04c1.93,1.18,4.06.09,4.85-1.68.6-1.35.48-3.32-.83-4.54-1.02-.95-3-1.36-4.46-.15-1.83,1.52-1.59,5.13.44,6.37Z"/>
  <path class="cls-1" d="M114.19,114.96c1.91-.61,2.89-2.56,2.41-4.64-.34-1.45-2.29-2.72-4.55-2.05-2.59.77-3.02,3.44-2.09,5.05.88,1.53,2.62,2.15,4.24,1.63Z"/>
  <path class="cls-1" d="M102.61,119.17c-1.81,1.46-1.22,4.31.1,5.37,1.57,1.25,3.7.59,4.71-.28,1.64-1.41,1.47-3.47.65-4.5-1.21-1.53-3.86-1.88-5.47-.59Z"/>
  <path class="cls-1" d="M174.06,175.13c-2.28,1-2.19,3.71-1.45,5.37.67,1.5,2.85,1.98,4.5,1.37,1.85-.69,2.41-2.8,1.83-4.58-.49-1.52-2.47-3.22-4.89-2.16Z"/>
  <path class="cls-1" d="M187.38,114.2c2.26-.59,2.58-2.55,2.35-3.93-.27-1.63-1.67-2.58-3.64-2.6-2.75-.02-4.11,2.07-3.68,4.25.37,1.89,2.27,2.98,4.97,2.27Z"/>
  <path class="cls-1" d="M187.66,117.86c-1.03,2.19-.17,4.56,1.36,5.37,1.48.79,4.35,1.38,4.9-1.01.63-2.73-.45-4.5-1.8-5.18-1.25-.62-3.68-.82-4.45.82Z"/>
  <path class="cls-1" d="M105.4,154.87c-2.41.97-2.44,3.58-1.15,5.16,1.08,1.32,3.02,1.78,4.83.92,1.53-.72,1.75-2.73,1.05-4.06-.95-1.79-2.64-2.86-4.73-2.02Z"/>
  <path class="cls-1" d="M195.22,135.37c-1.96,1.13-2.06,3.73-1.45,5.12.82,1.86,2.96,1.61,4.16,1.13,2.14-.86,2.73-2.71,2.1-4.45-.57-1.56-2.61-3.05-4.81-1.79Z"/>
  <path class="cls-1" d="M113.57,143.22c-2,1.41-1.33,4.15.24,5.18,1.58,1.04,3.38,1.1,4.54.02,1.65-1.54,1.24-3.31.48-4.37-1.27-1.76-3.5-2.08-5.26-.84Z"/>
  <path class="cls-1" d="M195.56,150.28c-.35,1.58.69,3.76,3.09,4.1,2.7.38,4.26-1.41,4.18-3.29-.06-1.42-1.19-2.68-3.09-3.02-1.82-.32-3.84.66-4.18,2.21Z"/>
  <path class="cls-1" d="M147.3,184.74c-2.02,1.14-1.54,3.85-.41,5.38,1.08,1.47,3.22,1.2,4.61.27,1.8-1.21,1.79-3.58.77-4.77-1.14-1.33-3.32-1.82-4.98-.88Z"/>
  <path class="cls-1" d="M144.64,99.61c1.21.37,3.6.67,4.66-1.02.69-1.09.58-3.43-.39-4.25-1.21-1.02-4.13-1.76-5.45.15-1.45,2.1-.63,4.56,1.18,5.11Z"/>
  <path class="cls-1" d="M112.38,125.72c-.78,1.96.5,3.66,1.79,4.34,1.39.73,3.96,1.18,4.78-1.24.87-2.56-.99-4.2-2.78-4.64-1.05-.26-3.1-.19-3.78,1.54Z"/>
  <path class="cls-1" d="M190.21,130.19c-.23,1.97,4.96,2.59,6.61.61,2.09-2.5-.69-5.1-2.31-5.3-2.32-.28-3.94,1.67-4.3,4.69Z"/>
  <path class="cls-1" d="M105.3,144.81c-1.14-1.45-3.18-2.03-4.91-.99-2.14,1.29-1.46,3.98-.09,5.06,1.36,1.08,3.24,1.2,4.71-.1,1.05-.93,1.1-2.95.29-3.97Z"/>
  <path class="cls-1" d="M115.46,139.35c1.29-.18,2.7-1.68,2.07-3.46-.55-1.55-2.45-1.69-3.84-1.56-.82.08-2.11.73-2.24,2.34-.22,2.59,2.12,2.95,4.01,2.68Z"/>
  <path class="cls-1" d="M112.25,163.9c-1.83.32-1.86,2.67-1.52,3.68.51,1.5,2.19,2.22,3.56,1.74.83-.3,2.53-1.1,2.17-2.53-.4-1.59-2.4-3.21-4.2-2.9Z"/>
</svg>